<mxfile host="Electron" agent="Mozilla/5.0 (Windows NT 10.0; Win64; x64) AppleWebKit/537.36 (KHTML, like Gecko) draw.io/24.7.17 Chrome/128.0.6613.36 Electron/32.0.1 Safari/537.36" version="24.7.17">
  <diagram id="C5RBs43oDa-KdzZeNtuy" name="Page-1">
    <mxGraphModel dx="1034" dy="788" grid="1" gridSize="10" guides="1" tooltips="1" connect="1" arrows="1" fold="1" page="1" pageScale="1" pageWidth="827" pageHeight="1169" math="0" shadow="0">
      <root>
        <mxCell id="WIyWlLk6GJQsqaUBKTNV-0" />
        <mxCell id="WIyWlLk6GJQsqaUBKTNV-1" parent="WIyWlLk6GJQsqaUBKTNV-0" />
        <mxCell id="ShX5K6O42kokeJW_D6mE-34" value="" style="rounded=0;whiteSpace=wrap;html=1;" parent="WIyWlLk6GJQsqaUBKTNV-1" vertex="1">
          <mxGeometry x="1280" y="365" width="110" height="80" as="geometry" />
        </mxCell>
        <mxCell id="ShX5K6O42kokeJW_D6mE-0" value="Rendering&lt;div&gt;Pipeline&lt;/div&gt;" style="rounded=1;whiteSpace=wrap;html=1;" parent="WIyWlLk6GJQsqaUBKTNV-1" vertex="1">
          <mxGeometry x="20" y="20" width="120" height="60" as="geometry" />
        </mxCell>
        <mxCell id="ShX5K6O42kokeJW_D6mE-6" style="edgeStyle=orthogonalEdgeStyle;rounded=0;orthogonalLoop=1;jettySize=auto;html=1;entryX=0;entryY=0.5;entryDx=0;entryDy=0;" parent="WIyWlLk6GJQsqaUBKTNV-1" source="ShX5K6O42kokeJW_D6mE-1" target="ShX5K6O42kokeJW_D6mE-2" edge="1">
          <mxGeometry relative="1" as="geometry" />
        </mxCell>
        <mxCell id="ShX5K6O42kokeJW_D6mE-1" value="CPU" style="rounded=0;whiteSpace=wrap;html=1;" parent="WIyWlLk6GJQsqaUBKTNV-1" vertex="1">
          <mxGeometry x="80" y="120" width="120" height="60" as="geometry" />
        </mxCell>
        <mxCell id="ShX5K6O42kokeJW_D6mE-2" value="GPU" style="rounded=0;whiteSpace=wrap;html=1;" parent="WIyWlLk6GJQsqaUBKTNV-1" vertex="1">
          <mxGeometry x="600" y="120" width="120" height="60" as="geometry" />
        </mxCell>
        <mxCell id="ShX5K6O42kokeJW_D6mE-3" value="필요한 리소스 로드 Shader들, 텍스쳐,..." style="rounded=0;whiteSpace=wrap;html=1;" parent="WIyWlLk6GJQsqaUBKTNV-1" vertex="1">
          <mxGeometry x="20" y="220" width="120" height="60" as="geometry" />
        </mxCell>
        <mxCell id="ShX5K6O42kokeJW_D6mE-4" value="Vertex Buffer&lt;div&gt;Index Buffer&lt;/div&gt;" style="rounded=0;whiteSpace=wrap;html=1;" parent="WIyWlLk6GJQsqaUBKTNV-1" vertex="1">
          <mxGeometry x="20" y="295" width="120" height="60" as="geometry" />
        </mxCell>
        <mxCell id="ShX5K6O42kokeJW_D6mE-5" value="Frustum Culling&lt;div&gt;Occlusion Culling&lt;/div&gt;" style="text;html=1;align=center;verticalAlign=middle;whiteSpace=wrap;rounded=0;" parent="WIyWlLk6GJQsqaUBKTNV-1" vertex="1">
          <mxGeometry x="140" y="300" width="140" height="50" as="geometry" />
        </mxCell>
        <mxCell id="ShX5K6O42kokeJW_D6mE-7" value="Draw Call&lt;div&gt;(드로우콜)&lt;/div&gt;" style="text;html=1;align=center;verticalAlign=middle;whiteSpace=wrap;rounded=0;" parent="WIyWlLk6GJQsqaUBKTNV-1" vertex="1">
          <mxGeometry x="360" y="110" width="100" height="30" as="geometry" />
        </mxCell>
        <mxCell id="ShX5K6O42kokeJW_D6mE-149" style="edgeStyle=orthogonalEdgeStyle;rounded=0;orthogonalLoop=1;jettySize=auto;html=1;" parent="WIyWlLk6GJQsqaUBKTNV-1" source="ShX5K6O42kokeJW_D6mE-9" target="ShX5K6O42kokeJW_D6mE-22" edge="1">
          <mxGeometry relative="1" as="geometry" />
        </mxCell>
        <mxCell id="ShX5K6O42kokeJW_D6mE-9" value="Vertex Shader" style="rounded=0;whiteSpace=wrap;html=1;" parent="WIyWlLk6GJQsqaUBKTNV-1" vertex="1">
          <mxGeometry x="540" y="230" width="140" height="80" as="geometry" />
        </mxCell>
        <mxCell id="ShX5K6O42kokeJW_D6mE-11" value="&lt;div&gt;Vertex data :&lt;/div&gt;&lt;div&gt;&lt;br&gt;&lt;/div&gt;꼭짓점의&lt;div&gt;위치,&lt;/div&gt;&lt;div&gt;법선,&lt;/div&gt;&lt;div&gt;텍스쳐 좌표,&lt;/div&gt;&lt;div&gt;색상 등&lt;/div&gt;" style="rounded=0;whiteSpace=wrap;html=1;" parent="WIyWlLk6GJQsqaUBKTNV-1" vertex="1">
          <mxGeometry x="65" y="380" width="150" height="120" as="geometry" />
        </mxCell>
        <mxCell id="ShX5K6O42kokeJW_D6mE-12" value="Transform&lt;div&gt;(좌표계 변환)&lt;/div&gt;" style="rounded=0;whiteSpace=wrap;html=1;" parent="WIyWlLk6GJQsqaUBKTNV-1" vertex="1">
          <mxGeometry x="690" y="250" width="120" height="60" as="geometry" />
        </mxCell>
        <mxCell id="ShX5K6O42kokeJW_D6mE-15" style="edgeStyle=orthogonalEdgeStyle;rounded=0;orthogonalLoop=1;jettySize=auto;html=1;" parent="WIyWlLk6GJQsqaUBKTNV-1" source="ShX5K6O42kokeJW_D6mE-13" target="ShX5K6O42kokeJW_D6mE-14" edge="1">
          <mxGeometry relative="1" as="geometry" />
        </mxCell>
        <mxCell id="ShX5K6O42kokeJW_D6mE-13" value="Local Space" style="rounded=1;whiteSpace=wrap;html=1;" parent="WIyWlLk6GJQsqaUBKTNV-1" vertex="1">
          <mxGeometry x="840" y="250" width="120" height="60" as="geometry" />
        </mxCell>
        <mxCell id="ShX5K6O42kokeJW_D6mE-17" style="edgeStyle=orthogonalEdgeStyle;rounded=0;orthogonalLoop=1;jettySize=auto;html=1;" parent="WIyWlLk6GJQsqaUBKTNV-1" source="ShX5K6O42kokeJW_D6mE-14" target="ShX5K6O42kokeJW_D6mE-16" edge="1">
          <mxGeometry relative="1" as="geometry" />
        </mxCell>
        <mxCell id="ShX5K6O42kokeJW_D6mE-14" value="World Space" style="rounded=1;whiteSpace=wrap;html=1;" parent="WIyWlLk6GJQsqaUBKTNV-1" vertex="1">
          <mxGeometry x="840" y="330" width="120" height="60" as="geometry" />
        </mxCell>
        <mxCell id="ShX5K6O42kokeJW_D6mE-19" style="edgeStyle=orthogonalEdgeStyle;rounded=0;orthogonalLoop=1;jettySize=auto;html=1;entryX=0.5;entryY=0;entryDx=0;entryDy=0;" parent="WIyWlLk6GJQsqaUBKTNV-1" source="ShX5K6O42kokeJW_D6mE-16" target="ShX5K6O42kokeJW_D6mE-18" edge="1">
          <mxGeometry relative="1" as="geometry" />
        </mxCell>
        <mxCell id="ShX5K6O42kokeJW_D6mE-16" value="View Space" style="rounded=1;whiteSpace=wrap;html=1;" parent="WIyWlLk6GJQsqaUBKTNV-1" vertex="1">
          <mxGeometry x="840" y="410" width="120" height="60" as="geometry" />
        </mxCell>
        <mxCell id="ShX5K6O42kokeJW_D6mE-21" style="edgeStyle=orthogonalEdgeStyle;rounded=0;orthogonalLoop=1;jettySize=auto;html=1;" parent="WIyWlLk6GJQsqaUBKTNV-1" source="ShX5K6O42kokeJW_D6mE-18" target="ShX5K6O42kokeJW_D6mE-20" edge="1">
          <mxGeometry relative="1" as="geometry" />
        </mxCell>
        <mxCell id="ShX5K6O42kokeJW_D6mE-18" value="Clip Space" style="rounded=1;whiteSpace=wrap;html=1;" parent="WIyWlLk6GJQsqaUBKTNV-1" vertex="1">
          <mxGeometry x="840" y="490" width="120" height="60" as="geometry" />
        </mxCell>
        <mxCell id="ShX5K6O42kokeJW_D6mE-20" value="부가 Shader 연산&lt;div&gt;(정점 기반 조명 등)&lt;/div&gt;" style="rounded=1;whiteSpace=wrap;html=1;dashed=1;" parent="WIyWlLk6GJQsqaUBKTNV-1" vertex="1">
          <mxGeometry x="840" y="570" width="120" height="60" as="geometry" />
        </mxCell>
        <mxCell id="ShX5K6O42kokeJW_D6mE-22" value="Tessellation Shader" style="rounded=0;whiteSpace=wrap;html=1;dashed=1;dashPattern=8 8;" parent="WIyWlLk6GJQsqaUBKTNV-1" vertex="1">
          <mxGeometry x="540" y="660" width="140" height="80" as="geometry" />
        </mxCell>
        <mxCell id="ShX5K6O42kokeJW_D6mE-23" value="Mesh 의 부드러운 표현 또는 표면을 디테일하게 살리기위해 내부 삼각형단위로 세분화함.." style="rounded=1;whiteSpace=wrap;html=1;" parent="WIyWlLk6GJQsqaUBKTNV-1" vertex="1">
          <mxGeometry x="707" y="680" width="283" height="60" as="geometry" />
        </mxCell>
        <mxCell id="ShX5K6O42kokeJW_D6mE-150" style="edgeStyle=orthogonalEdgeStyle;rounded=0;orthogonalLoop=1;jettySize=auto;html=1;entryX=0.5;entryY=0;entryDx=0;entryDy=0;" parent="WIyWlLk6GJQsqaUBKTNV-1" source="ShX5K6O42kokeJW_D6mE-24" target="ShX5K6O42kokeJW_D6mE-26" edge="1">
          <mxGeometry relative="1" as="geometry">
            <Array as="points">
              <mxPoint x="610" y="950" />
              <mxPoint x="1030" y="950" />
              <mxPoint x="1030" y="80" />
              <mxPoint x="1180" y="80" />
            </Array>
          </mxGeometry>
        </mxCell>
        <mxCell id="ShX5K6O42kokeJW_D6mE-24" value="Geometry Shader" style="rounded=0;whiteSpace=wrap;html=1;dashed=1;dashPattern=8 8;" parent="WIyWlLk6GJQsqaUBKTNV-1" vertex="1">
          <mxGeometry x="540" y="750" width="140" height="80" as="geometry" />
        </mxCell>
        <mxCell id="ShX5K6O42kokeJW_D6mE-25" value="이전 파이프단계에 결과물에다 추가 Primitive 형태를 그려줌..&amp;nbsp;" style="rounded=1;whiteSpace=wrap;html=1;" parent="WIyWlLk6GJQsqaUBKTNV-1" vertex="1">
          <mxGeometry x="707" y="760" width="283" height="60" as="geometry" />
        </mxCell>
        <mxCell id="ShX5K6O42kokeJW_D6mE-26" value="Clipping" style="rounded=0;whiteSpace=wrap;html=1;" parent="WIyWlLk6GJQsqaUBKTNV-1" vertex="1">
          <mxGeometry x="1110" y="100" width="140" height="80" as="geometry" />
        </mxCell>
        <mxCell id="ShX5K6O42kokeJW_D6mE-27" value="절두체(Frustum) 바깥에 있는 / 일부만 걸쳐있는 나머지 부분을 잘라내는 과정." style="rounded=1;whiteSpace=wrap;html=1;" parent="WIyWlLk6GJQsqaUBKTNV-1" vertex="1">
          <mxGeometry x="1277" y="110" width="283" height="60" as="geometry" />
        </mxCell>
        <mxCell id="ShX5K6O42kokeJW_D6mE-28" value="Backface culling" style="rounded=0;whiteSpace=wrap;html=1;" parent="WIyWlLk6GJQsqaUBKTNV-1" vertex="1">
          <mxGeometry x="1110" y="190" width="140" height="80" as="geometry" />
        </mxCell>
        <mxCell id="ShX5K6O42kokeJW_D6mE-29" value="Vertex 데이터의 법선벡터가 카메라를 향하고&amp;nbsp;&lt;div&gt;있지 않은 삼각형들을 제거.&lt;/div&gt;" style="rounded=1;whiteSpace=wrap;html=1;" parent="WIyWlLk6GJQsqaUBKTNV-1" vertex="1">
          <mxGeometry x="1277" y="200" width="283" height="60" as="geometry" />
        </mxCell>
        <mxCell id="ShX5K6O42kokeJW_D6mE-30" value="Viewport" style="rounded=0;whiteSpace=wrap;html=1;" parent="WIyWlLk6GJQsqaUBKTNV-1" vertex="1">
          <mxGeometry x="1110" y="280" width="140" height="80" as="geometry" />
        </mxCell>
        <mxCell id="ShX5K6O42kokeJW_D6mE-31" value="Clip좌표계에 있는 데이터를&amp;nbsp;&lt;div&gt;실제 화면 스크린 좌표계로 매핑&lt;/div&gt;" style="rounded=1;whiteSpace=wrap;html=1;" parent="WIyWlLk6GJQsqaUBKTNV-1" vertex="1">
          <mxGeometry x="1277" y="290" width="283" height="60" as="geometry" />
        </mxCell>
        <mxCell id="ShX5K6O42kokeJW_D6mE-32" value="Rasterization&lt;div&gt;(픽셀출력에 사용할 단위로 쪼개는(Fragment) 과정)&lt;/div&gt;" style="rounded=0;whiteSpace=wrap;html=1;" parent="WIyWlLk6GJQsqaUBKTNV-1" vertex="1">
          <mxGeometry x="1110" y="370" width="140" height="80" as="geometry" />
        </mxCell>
        <mxCell id="ShX5K6O42kokeJW_D6mE-33" value="" style="shape=cube;whiteSpace=wrap;html=1;boundedLbl=1;backgroundOutline=1;darkOpacity=0.05;darkOpacity2=0.1;size=20;fillColor=#60a917;fontColor=#ffffff;strokeColor=#2D7600;" parent="WIyWlLk6GJQsqaUBKTNV-1" vertex="1">
          <mxGeometry x="1310" y="380" width="60" height="50" as="geometry" />
        </mxCell>
        <mxCell id="ShX5K6O42kokeJW_D6mE-35" value="" style="whiteSpace=wrap;html=1;aspect=fixed;" parent="WIyWlLk6GJQsqaUBKTNV-1" vertex="1">
          <mxGeometry x="1410" y="365" width="10" height="10" as="geometry" />
        </mxCell>
        <mxCell id="ShX5K6O42kokeJW_D6mE-36" value="" style="whiteSpace=wrap;html=1;aspect=fixed;" parent="WIyWlLk6GJQsqaUBKTNV-1" vertex="1">
          <mxGeometry x="1420" y="365" width="10" height="10" as="geometry" />
        </mxCell>
        <mxCell id="ShX5K6O42kokeJW_D6mE-37" value="" style="whiteSpace=wrap;html=1;aspect=fixed;" parent="WIyWlLk6GJQsqaUBKTNV-1" vertex="1">
          <mxGeometry x="1430" y="365" width="10" height="10" as="geometry" />
        </mxCell>
        <mxCell id="ShX5K6O42kokeJW_D6mE-38" value="" style="whiteSpace=wrap;html=1;aspect=fixed;" parent="WIyWlLk6GJQsqaUBKTNV-1" vertex="1">
          <mxGeometry x="1440" y="365" width="10" height="10" as="geometry" />
        </mxCell>
        <mxCell id="ShX5K6O42kokeJW_D6mE-39" value="" style="whiteSpace=wrap;html=1;aspect=fixed;" parent="WIyWlLk6GJQsqaUBKTNV-1" vertex="1">
          <mxGeometry x="1450" y="365" width="10" height="10" as="geometry" />
        </mxCell>
        <mxCell id="ShX5K6O42kokeJW_D6mE-40" value="" style="whiteSpace=wrap;html=1;aspect=fixed;" parent="WIyWlLk6GJQsqaUBKTNV-1" vertex="1">
          <mxGeometry x="1460" y="365" width="10" height="10" as="geometry" />
        </mxCell>
        <mxCell id="ShX5K6O42kokeJW_D6mE-41" value="" style="whiteSpace=wrap;html=1;aspect=fixed;" parent="WIyWlLk6GJQsqaUBKTNV-1" vertex="1">
          <mxGeometry x="1470" y="365" width="10" height="10" as="geometry" />
        </mxCell>
        <mxCell id="ShX5K6O42kokeJW_D6mE-42" value="" style="whiteSpace=wrap;html=1;aspect=fixed;" parent="WIyWlLk6GJQsqaUBKTNV-1" vertex="1">
          <mxGeometry x="1480" y="365" width="10" height="10" as="geometry" />
        </mxCell>
        <mxCell id="ShX5K6O42kokeJW_D6mE-43" value="" style="whiteSpace=wrap;html=1;aspect=fixed;" parent="WIyWlLk6GJQsqaUBKTNV-1" vertex="1">
          <mxGeometry x="1490" y="365" width="10" height="10" as="geometry" />
        </mxCell>
        <mxCell id="ShX5K6O42kokeJW_D6mE-44" value="" style="whiteSpace=wrap;html=1;aspect=fixed;" parent="WIyWlLk6GJQsqaUBKTNV-1" vertex="1">
          <mxGeometry x="1500" y="365" width="10" height="10" as="geometry" />
        </mxCell>
        <mxCell id="ShX5K6O42kokeJW_D6mE-45" value="" style="whiteSpace=wrap;html=1;aspect=fixed;" parent="WIyWlLk6GJQsqaUBKTNV-1" vertex="1">
          <mxGeometry x="1510" y="365" width="10" height="10" as="geometry" />
        </mxCell>
        <mxCell id="ShX5K6O42kokeJW_D6mE-46" value="" style="whiteSpace=wrap;html=1;aspect=fixed;" parent="WIyWlLk6GJQsqaUBKTNV-1" vertex="1">
          <mxGeometry x="1520" y="365" width="10" height="10" as="geometry" />
        </mxCell>
        <mxCell id="ShX5K6O42kokeJW_D6mE-47" value="" style="whiteSpace=wrap;html=1;aspect=fixed;" parent="WIyWlLk6GJQsqaUBKTNV-1" vertex="1">
          <mxGeometry x="1410" y="375" width="10" height="10" as="geometry" />
        </mxCell>
        <mxCell id="ShX5K6O42kokeJW_D6mE-48" value="" style="whiteSpace=wrap;html=1;aspect=fixed;" parent="WIyWlLk6GJQsqaUBKTNV-1" vertex="1">
          <mxGeometry x="1420" y="375" width="10" height="10" as="geometry" />
        </mxCell>
        <mxCell id="ShX5K6O42kokeJW_D6mE-49" value="" style="whiteSpace=wrap;html=1;aspect=fixed;" parent="WIyWlLk6GJQsqaUBKTNV-1" vertex="1">
          <mxGeometry x="1430" y="375" width="10" height="10" as="geometry" />
        </mxCell>
        <mxCell id="ShX5K6O42kokeJW_D6mE-50" value="" style="whiteSpace=wrap;html=1;aspect=fixed;fillColor=#008a00;fontColor=#ffffff;strokeColor=#005700;" parent="WIyWlLk6GJQsqaUBKTNV-1" vertex="1">
          <mxGeometry x="1440" y="375" width="10" height="10" as="geometry" />
        </mxCell>
        <mxCell id="ShX5K6O42kokeJW_D6mE-51" value="" style="whiteSpace=wrap;html=1;aspect=fixed;fillColor=#008a00;fontColor=#ffffff;strokeColor=#005700;" parent="WIyWlLk6GJQsqaUBKTNV-1" vertex="1">
          <mxGeometry x="1450" y="375" width="10" height="10" as="geometry" />
        </mxCell>
        <mxCell id="ShX5K6O42kokeJW_D6mE-52" value="" style="whiteSpace=wrap;html=1;aspect=fixed;fillColor=#008a00;fontColor=#ffffff;strokeColor=#005700;" parent="WIyWlLk6GJQsqaUBKTNV-1" vertex="1">
          <mxGeometry x="1460" y="375" width="10" height="10" as="geometry" />
        </mxCell>
        <mxCell id="ShX5K6O42kokeJW_D6mE-53" value="" style="whiteSpace=wrap;html=1;aspect=fixed;fillColor=#008a00;fontColor=#ffffff;strokeColor=#005700;" parent="WIyWlLk6GJQsqaUBKTNV-1" vertex="1">
          <mxGeometry x="1470" y="375" width="10" height="10" as="geometry" />
        </mxCell>
        <mxCell id="ShX5K6O42kokeJW_D6mE-54" value="" style="whiteSpace=wrap;html=1;aspect=fixed;fillColor=#008a00;fontColor=#ffffff;strokeColor=#005700;" parent="WIyWlLk6GJQsqaUBKTNV-1" vertex="1">
          <mxGeometry x="1480" y="375" width="10" height="10" as="geometry" />
        </mxCell>
        <mxCell id="ShX5K6O42kokeJW_D6mE-55" value="" style="whiteSpace=wrap;html=1;aspect=fixed;fillColor=#008a00;fontColor=#ffffff;strokeColor=#005700;" parent="WIyWlLk6GJQsqaUBKTNV-1" vertex="1">
          <mxGeometry x="1490" y="375" width="10" height="10" as="geometry" />
        </mxCell>
        <mxCell id="ShX5K6O42kokeJW_D6mE-56" value="" style="whiteSpace=wrap;html=1;aspect=fixed;" parent="WIyWlLk6GJQsqaUBKTNV-1" vertex="1">
          <mxGeometry x="1500" y="375" width="10" height="10" as="geometry" />
        </mxCell>
        <mxCell id="ShX5K6O42kokeJW_D6mE-57" value="" style="whiteSpace=wrap;html=1;aspect=fixed;" parent="WIyWlLk6GJQsqaUBKTNV-1" vertex="1">
          <mxGeometry x="1510" y="375" width="10" height="10" as="geometry" />
        </mxCell>
        <mxCell id="ShX5K6O42kokeJW_D6mE-58" value="" style="whiteSpace=wrap;html=1;aspect=fixed;" parent="WIyWlLk6GJQsqaUBKTNV-1" vertex="1">
          <mxGeometry x="1520" y="375" width="10" height="10" as="geometry" />
        </mxCell>
        <mxCell id="ShX5K6O42kokeJW_D6mE-59" value="" style="whiteSpace=wrap;html=1;aspect=fixed;" parent="WIyWlLk6GJQsqaUBKTNV-1" vertex="1">
          <mxGeometry x="1410" y="385" width="10" height="10" as="geometry" />
        </mxCell>
        <mxCell id="ShX5K6O42kokeJW_D6mE-60" value="" style="whiteSpace=wrap;html=1;aspect=fixed;" parent="WIyWlLk6GJQsqaUBKTNV-1" vertex="1">
          <mxGeometry x="1420" y="385" width="10" height="10" as="geometry" />
        </mxCell>
        <mxCell id="ShX5K6O42kokeJW_D6mE-61" value="" style="whiteSpace=wrap;html=1;aspect=fixed;" parent="WIyWlLk6GJQsqaUBKTNV-1" vertex="1">
          <mxGeometry x="1430" y="385" width="10" height="10" as="geometry" />
        </mxCell>
        <mxCell id="ShX5K6O42kokeJW_D6mE-62" value="" style="whiteSpace=wrap;html=1;aspect=fixed;fillColor=#008a00;fontColor=#ffffff;strokeColor=#005700;" parent="WIyWlLk6GJQsqaUBKTNV-1" vertex="1">
          <mxGeometry x="1440" y="385" width="10" height="10" as="geometry" />
        </mxCell>
        <mxCell id="ShX5K6O42kokeJW_D6mE-63" value="" style="whiteSpace=wrap;html=1;aspect=fixed;fillColor=#008a00;fontColor=#ffffff;strokeColor=#005700;" parent="WIyWlLk6GJQsqaUBKTNV-1" vertex="1">
          <mxGeometry x="1450" y="385" width="10" height="10" as="geometry" />
        </mxCell>
        <mxCell id="ShX5K6O42kokeJW_D6mE-64" value="" style="whiteSpace=wrap;html=1;aspect=fixed;fillColor=#60a917;fontColor=#ffffff;strokeColor=#2D7600;" parent="WIyWlLk6GJQsqaUBKTNV-1" vertex="1">
          <mxGeometry x="1460" y="385" width="10" height="10" as="geometry" />
        </mxCell>
        <mxCell id="ShX5K6O42kokeJW_D6mE-65" value="" style="whiteSpace=wrap;html=1;aspect=fixed;fillColor=#60a917;fontColor=#ffffff;strokeColor=#2D7600;" parent="WIyWlLk6GJQsqaUBKTNV-1" vertex="1">
          <mxGeometry x="1470" y="385" width="10" height="10" as="geometry" />
        </mxCell>
        <mxCell id="ShX5K6O42kokeJW_D6mE-66" value="" style="whiteSpace=wrap;html=1;aspect=fixed;fillColor=#60a917;fontColor=#ffffff;strokeColor=#2D7600;" parent="WIyWlLk6GJQsqaUBKTNV-1" vertex="1">
          <mxGeometry x="1480" y="385" width="10" height="10" as="geometry" />
        </mxCell>
        <mxCell id="ShX5K6O42kokeJW_D6mE-67" value="" style="whiteSpace=wrap;html=1;aspect=fixed;fillColor=#60a917;fontColor=#ffffff;strokeColor=#2D7600;" parent="WIyWlLk6GJQsqaUBKTNV-1" vertex="1">
          <mxGeometry x="1490" y="385" width="10" height="10" as="geometry" />
        </mxCell>
        <mxCell id="ShX5K6O42kokeJW_D6mE-68" value="" style="whiteSpace=wrap;html=1;aspect=fixed;fillColor=#008a00;fontColor=#ffffff;strokeColor=#005700;" parent="WIyWlLk6GJQsqaUBKTNV-1" vertex="1">
          <mxGeometry x="1500" y="385" width="10" height="10" as="geometry" />
        </mxCell>
        <mxCell id="ShX5K6O42kokeJW_D6mE-69" value="" style="whiteSpace=wrap;html=1;aspect=fixed;" parent="WIyWlLk6GJQsqaUBKTNV-1" vertex="1">
          <mxGeometry x="1510" y="385" width="10" height="10" as="geometry" />
        </mxCell>
        <mxCell id="ShX5K6O42kokeJW_D6mE-70" value="" style="whiteSpace=wrap;html=1;aspect=fixed;" parent="WIyWlLk6GJQsqaUBKTNV-1" vertex="1">
          <mxGeometry x="1520" y="385" width="10" height="10" as="geometry" />
        </mxCell>
        <mxCell id="ShX5K6O42kokeJW_D6mE-71" value="" style="whiteSpace=wrap;html=1;aspect=fixed;" parent="WIyWlLk6GJQsqaUBKTNV-1" vertex="1">
          <mxGeometry x="1410" y="395" width="10" height="10" as="geometry" />
        </mxCell>
        <mxCell id="ShX5K6O42kokeJW_D6mE-72" value="" style="whiteSpace=wrap;html=1;aspect=fixed;" parent="WIyWlLk6GJQsqaUBKTNV-1" vertex="1">
          <mxGeometry x="1420" y="395" width="10" height="10" as="geometry" />
        </mxCell>
        <mxCell id="ShX5K6O42kokeJW_D6mE-73" value="" style="whiteSpace=wrap;html=1;aspect=fixed;" parent="WIyWlLk6GJQsqaUBKTNV-1" vertex="1">
          <mxGeometry x="1430" y="395" width="10" height="10" as="geometry" />
        </mxCell>
        <mxCell id="ShX5K6O42kokeJW_D6mE-74" value="" style="whiteSpace=wrap;html=1;aspect=fixed;fillColor=#008a00;fontColor=#ffffff;strokeColor=#005700;" parent="WIyWlLk6GJQsqaUBKTNV-1" vertex="1">
          <mxGeometry x="1440" y="395" width="10" height="10" as="geometry" />
        </mxCell>
        <mxCell id="ShX5K6O42kokeJW_D6mE-75" value="" style="whiteSpace=wrap;html=1;aspect=fixed;fillColor=#60a917;fontColor=#ffffff;strokeColor=#2D7600;" parent="WIyWlLk6GJQsqaUBKTNV-1" vertex="1">
          <mxGeometry x="1450" y="395" width="10" height="10" as="geometry" />
        </mxCell>
        <mxCell id="ShX5K6O42kokeJW_D6mE-76" value="" style="whiteSpace=wrap;html=1;aspect=fixed;fillColor=#008a00;fontColor=#ffffff;strokeColor=#005700;" parent="WIyWlLk6GJQsqaUBKTNV-1" vertex="1">
          <mxGeometry x="1460" y="395" width="10" height="10" as="geometry" />
        </mxCell>
        <mxCell id="ShX5K6O42kokeJW_D6mE-77" value="" style="whiteSpace=wrap;html=1;aspect=fixed;fillColor=#60a917;fontColor=#ffffff;strokeColor=#2D7600;" parent="WIyWlLk6GJQsqaUBKTNV-1" vertex="1">
          <mxGeometry x="1470" y="395" width="10" height="10" as="geometry" />
        </mxCell>
        <mxCell id="ShX5K6O42kokeJW_D6mE-78" value="" style="whiteSpace=wrap;html=1;aspect=fixed;fillColor=#60a917;fontColor=#ffffff;strokeColor=#2D7600;" parent="WIyWlLk6GJQsqaUBKTNV-1" vertex="1">
          <mxGeometry x="1480" y="395" width="10" height="10" as="geometry" />
        </mxCell>
        <mxCell id="ShX5K6O42kokeJW_D6mE-79" value="" style="whiteSpace=wrap;html=1;aspect=fixed;fillColor=#60a917;fontColor=#ffffff;strokeColor=#2D7600;" parent="WIyWlLk6GJQsqaUBKTNV-1" vertex="1">
          <mxGeometry x="1490" y="395" width="10" height="10" as="geometry" />
        </mxCell>
        <mxCell id="ShX5K6O42kokeJW_D6mE-80" value="" style="whiteSpace=wrap;html=1;aspect=fixed;fillColor=#60a917;fontColor=#ffffff;strokeColor=#2D7600;" parent="WIyWlLk6GJQsqaUBKTNV-1" vertex="1">
          <mxGeometry x="1500" y="395" width="10" height="10" as="geometry" />
        </mxCell>
        <mxCell id="ShX5K6O42kokeJW_D6mE-81" value="" style="whiteSpace=wrap;html=1;aspect=fixed;fillColor=#008a00;fontColor=#ffffff;strokeColor=#005700;" parent="WIyWlLk6GJQsqaUBKTNV-1" vertex="1">
          <mxGeometry x="1510" y="395" width="10" height="10" as="geometry" />
        </mxCell>
        <mxCell id="ShX5K6O42kokeJW_D6mE-82" value="" style="whiteSpace=wrap;html=1;aspect=fixed;" parent="WIyWlLk6GJQsqaUBKTNV-1" vertex="1">
          <mxGeometry x="1520" y="395" width="10" height="10" as="geometry" />
        </mxCell>
        <mxCell id="ShX5K6O42kokeJW_D6mE-83" value="" style="whiteSpace=wrap;html=1;aspect=fixed;" parent="WIyWlLk6GJQsqaUBKTNV-1" vertex="1">
          <mxGeometry x="1410" y="405" width="10" height="10" as="geometry" />
        </mxCell>
        <mxCell id="ShX5K6O42kokeJW_D6mE-84" value="" style="whiteSpace=wrap;html=1;aspect=fixed;" parent="WIyWlLk6GJQsqaUBKTNV-1" vertex="1">
          <mxGeometry x="1420" y="405" width="10" height="10" as="geometry" />
        </mxCell>
        <mxCell id="ShX5K6O42kokeJW_D6mE-85" value="" style="whiteSpace=wrap;html=1;aspect=fixed;" parent="WIyWlLk6GJQsqaUBKTNV-1" vertex="1">
          <mxGeometry x="1430" y="405" width="10" height="10" as="geometry" />
        </mxCell>
        <mxCell id="ShX5K6O42kokeJW_D6mE-86" value="" style="whiteSpace=wrap;html=1;aspect=fixed;" parent="WIyWlLk6GJQsqaUBKTNV-1" vertex="1">
          <mxGeometry x="1440" y="405" width="10" height="10" as="geometry" />
        </mxCell>
        <mxCell id="ShX5K6O42kokeJW_D6mE-87" value="" style="whiteSpace=wrap;html=1;aspect=fixed;fillColor=#008a00;fontColor=#ffffff;strokeColor=#005700;" parent="WIyWlLk6GJQsqaUBKTNV-1" vertex="1">
          <mxGeometry x="1450" y="405" width="10" height="10" as="geometry" />
        </mxCell>
        <mxCell id="ShX5K6O42kokeJW_D6mE-88" value="" style="whiteSpace=wrap;html=1;aspect=fixed;fillColor=#60a917;fontColor=#ffffff;strokeColor=#2D7600;" parent="WIyWlLk6GJQsqaUBKTNV-1" vertex="1">
          <mxGeometry x="1460" y="405" width="10" height="10" as="geometry" />
        </mxCell>
        <mxCell id="ShX5K6O42kokeJW_D6mE-89" value="" style="whiteSpace=wrap;html=1;aspect=fixed;fillColor=#008a00;fontColor=#ffffff;strokeColor=#005700;" parent="WIyWlLk6GJQsqaUBKTNV-1" vertex="1">
          <mxGeometry x="1470" y="405" width="10" height="10" as="geometry" />
        </mxCell>
        <mxCell id="ShX5K6O42kokeJW_D6mE-90" value="" style="whiteSpace=wrap;html=1;aspect=fixed;fillColor=#60a917;fontColor=#ffffff;strokeColor=#2D7600;" parent="WIyWlLk6GJQsqaUBKTNV-1" vertex="1">
          <mxGeometry x="1480" y="405" width="10" height="10" as="geometry" />
        </mxCell>
        <mxCell id="ShX5K6O42kokeJW_D6mE-91" value="" style="whiteSpace=wrap;html=1;aspect=fixed;fillColor=#60a917;fontColor=#ffffff;strokeColor=#2D7600;" parent="WIyWlLk6GJQsqaUBKTNV-1" vertex="1">
          <mxGeometry x="1490" y="405" width="10" height="10" as="geometry" />
        </mxCell>
        <mxCell id="ShX5K6O42kokeJW_D6mE-92" value="" style="whiteSpace=wrap;html=1;aspect=fixed;fillColor=#60a917;fontColor=#ffffff;strokeColor=#2D7600;" parent="WIyWlLk6GJQsqaUBKTNV-1" vertex="1">
          <mxGeometry x="1500" y="405" width="10" height="10" as="geometry" />
        </mxCell>
        <mxCell id="ShX5K6O42kokeJW_D6mE-93" value="" style="whiteSpace=wrap;html=1;aspect=fixed;fillColor=#008a00;fontColor=#ffffff;strokeColor=#005700;" parent="WIyWlLk6GJQsqaUBKTNV-1" vertex="1">
          <mxGeometry x="1510" y="405" width="10" height="10" as="geometry" />
        </mxCell>
        <mxCell id="ShX5K6O42kokeJW_D6mE-94" value="" style="whiteSpace=wrap;html=1;aspect=fixed;" parent="WIyWlLk6GJQsqaUBKTNV-1" vertex="1">
          <mxGeometry x="1520" y="405" width="10" height="10" as="geometry" />
        </mxCell>
        <mxCell id="ShX5K6O42kokeJW_D6mE-95" value="" style="whiteSpace=wrap;html=1;aspect=fixed;" parent="WIyWlLk6GJQsqaUBKTNV-1" vertex="1">
          <mxGeometry x="1410" y="415" width="10" height="10" as="geometry" />
        </mxCell>
        <mxCell id="ShX5K6O42kokeJW_D6mE-96" value="" style="whiteSpace=wrap;html=1;aspect=fixed;" parent="WIyWlLk6GJQsqaUBKTNV-1" vertex="1">
          <mxGeometry x="1420" y="415" width="10" height="10" as="geometry" />
        </mxCell>
        <mxCell id="ShX5K6O42kokeJW_D6mE-97" value="" style="whiteSpace=wrap;html=1;aspect=fixed;" parent="WIyWlLk6GJQsqaUBKTNV-1" vertex="1">
          <mxGeometry x="1430" y="415" width="10" height="10" as="geometry" />
        </mxCell>
        <mxCell id="ShX5K6O42kokeJW_D6mE-98" value="" style="whiteSpace=wrap;html=1;aspect=fixed;" parent="WIyWlLk6GJQsqaUBKTNV-1" vertex="1">
          <mxGeometry x="1440" y="415" width="10" height="10" as="geometry" />
        </mxCell>
        <mxCell id="ShX5K6O42kokeJW_D6mE-99" value="" style="whiteSpace=wrap;html=1;aspect=fixed;" parent="WIyWlLk6GJQsqaUBKTNV-1" vertex="1">
          <mxGeometry x="1450" y="415" width="10" height="10" as="geometry" />
        </mxCell>
        <mxCell id="ShX5K6O42kokeJW_D6mE-100" value="" style="whiteSpace=wrap;html=1;aspect=fixed;fillColor=#008a00;fontColor=#ffffff;strokeColor=#005700;" parent="WIyWlLk6GJQsqaUBKTNV-1" vertex="1">
          <mxGeometry x="1460" y="415" width="10" height="10" as="geometry" />
        </mxCell>
        <mxCell id="ShX5K6O42kokeJW_D6mE-101" value="" style="whiteSpace=wrap;html=1;aspect=fixed;fillColor=#008a00;fontColor=#ffffff;strokeColor=#005700;" parent="WIyWlLk6GJQsqaUBKTNV-1" vertex="1">
          <mxGeometry x="1470" y="415" width="10" height="10" as="geometry" />
        </mxCell>
        <mxCell id="ShX5K6O42kokeJW_D6mE-102" value="" style="whiteSpace=wrap;html=1;aspect=fixed;fillColor=#60a917;fontColor=#ffffff;strokeColor=#2D7600;" parent="WIyWlLk6GJQsqaUBKTNV-1" vertex="1">
          <mxGeometry x="1480" y="415" width="10" height="10" as="geometry" />
        </mxCell>
        <mxCell id="ShX5K6O42kokeJW_D6mE-103" value="" style="whiteSpace=wrap;html=1;aspect=fixed;fillColor=#60a917;fontColor=#ffffff;strokeColor=#2D7600;" parent="WIyWlLk6GJQsqaUBKTNV-1" vertex="1">
          <mxGeometry x="1490" y="415" width="10" height="10" as="geometry" />
        </mxCell>
        <mxCell id="ShX5K6O42kokeJW_D6mE-104" value="" style="whiteSpace=wrap;html=1;aspect=fixed;fillColor=#60a917;fontColor=#ffffff;strokeColor=#2D7600;" parent="WIyWlLk6GJQsqaUBKTNV-1" vertex="1">
          <mxGeometry x="1500" y="415" width="10" height="10" as="geometry" />
        </mxCell>
        <mxCell id="ShX5K6O42kokeJW_D6mE-105" value="" style="whiteSpace=wrap;html=1;aspect=fixed;fillColor=#008a00;fontColor=#ffffff;strokeColor=#005700;" parent="WIyWlLk6GJQsqaUBKTNV-1" vertex="1">
          <mxGeometry x="1510" y="415" width="10" height="10" as="geometry" />
        </mxCell>
        <mxCell id="ShX5K6O42kokeJW_D6mE-106" value="" style="whiteSpace=wrap;html=1;aspect=fixed;" parent="WIyWlLk6GJQsqaUBKTNV-1" vertex="1">
          <mxGeometry x="1520" y="415" width="10" height="10" as="geometry" />
        </mxCell>
        <mxCell id="ShX5K6O42kokeJW_D6mE-107" value="" style="whiteSpace=wrap;html=1;aspect=fixed;" parent="WIyWlLk6GJQsqaUBKTNV-1" vertex="1">
          <mxGeometry x="1410" y="425" width="10" height="10" as="geometry" />
        </mxCell>
        <mxCell id="ShX5K6O42kokeJW_D6mE-108" value="" style="whiteSpace=wrap;html=1;aspect=fixed;" parent="WIyWlLk6GJQsqaUBKTNV-1" vertex="1">
          <mxGeometry x="1420" y="425" width="10" height="10" as="geometry" />
        </mxCell>
        <mxCell id="ShX5K6O42kokeJW_D6mE-109" value="" style="whiteSpace=wrap;html=1;aspect=fixed;" parent="WIyWlLk6GJQsqaUBKTNV-1" vertex="1">
          <mxGeometry x="1430" y="425" width="10" height="10" as="geometry" />
        </mxCell>
        <mxCell id="ShX5K6O42kokeJW_D6mE-110" value="" style="whiteSpace=wrap;html=1;aspect=fixed;" parent="WIyWlLk6GJQsqaUBKTNV-1" vertex="1">
          <mxGeometry x="1440" y="425" width="10" height="10" as="geometry" />
        </mxCell>
        <mxCell id="ShX5K6O42kokeJW_D6mE-111" value="" style="whiteSpace=wrap;html=1;aspect=fixed;" parent="WIyWlLk6GJQsqaUBKTNV-1" vertex="1">
          <mxGeometry x="1450" y="425" width="10" height="10" as="geometry" />
        </mxCell>
        <mxCell id="ShX5K6O42kokeJW_D6mE-112" value="" style="whiteSpace=wrap;html=1;aspect=fixed;" parent="WIyWlLk6GJQsqaUBKTNV-1" vertex="1">
          <mxGeometry x="1460" y="425" width="10" height="10" as="geometry" />
        </mxCell>
        <mxCell id="ShX5K6O42kokeJW_D6mE-113" value="" style="whiteSpace=wrap;html=1;aspect=fixed;fillColor=#008a00;fontColor=#ffffff;strokeColor=#005700;" parent="WIyWlLk6GJQsqaUBKTNV-1" vertex="1">
          <mxGeometry x="1470" y="425" width="10" height="10" as="geometry" />
        </mxCell>
        <mxCell id="ShX5K6O42kokeJW_D6mE-114" value="" style="whiteSpace=wrap;html=1;aspect=fixed;fillColor=#008a00;fontColor=#ffffff;strokeColor=#005700;" parent="WIyWlLk6GJQsqaUBKTNV-1" vertex="1">
          <mxGeometry x="1480" y="425" width="10" height="10" as="geometry" />
        </mxCell>
        <mxCell id="ShX5K6O42kokeJW_D6mE-115" value="" style="whiteSpace=wrap;html=1;aspect=fixed;fillColor=#008a00;fontColor=#ffffff;strokeColor=#005700;" parent="WIyWlLk6GJQsqaUBKTNV-1" vertex="1">
          <mxGeometry x="1490" y="425" width="10" height="10" as="geometry" />
        </mxCell>
        <mxCell id="ShX5K6O42kokeJW_D6mE-116" value="" style="whiteSpace=wrap;html=1;aspect=fixed;fillColor=#008a00;fontColor=#ffffff;strokeColor=#005700;" parent="WIyWlLk6GJQsqaUBKTNV-1" vertex="1">
          <mxGeometry x="1500" y="425" width="10" height="10" as="geometry" />
        </mxCell>
        <mxCell id="ShX5K6O42kokeJW_D6mE-117" value="" style="whiteSpace=wrap;html=1;aspect=fixed;fillColor=#008a00;fontColor=#ffffff;strokeColor=#005700;" parent="WIyWlLk6GJQsqaUBKTNV-1" vertex="1">
          <mxGeometry x="1510" y="425" width="10" height="10" as="geometry" />
        </mxCell>
        <mxCell id="ShX5K6O42kokeJW_D6mE-118" value="" style="whiteSpace=wrap;html=1;aspect=fixed;" parent="WIyWlLk6GJQsqaUBKTNV-1" vertex="1">
          <mxGeometry x="1520" y="425" width="10" height="10" as="geometry" />
        </mxCell>
        <mxCell id="ShX5K6O42kokeJW_D6mE-119" value="" style="whiteSpace=wrap;html=1;aspect=fixed;" parent="WIyWlLk6GJQsqaUBKTNV-1" vertex="1">
          <mxGeometry x="1410" y="435" width="10" height="10" as="geometry" />
        </mxCell>
        <mxCell id="ShX5K6O42kokeJW_D6mE-120" value="" style="whiteSpace=wrap;html=1;aspect=fixed;" parent="WIyWlLk6GJQsqaUBKTNV-1" vertex="1">
          <mxGeometry x="1420" y="435" width="10" height="10" as="geometry" />
        </mxCell>
        <mxCell id="ShX5K6O42kokeJW_D6mE-121" value="" style="whiteSpace=wrap;html=1;aspect=fixed;" parent="WIyWlLk6GJQsqaUBKTNV-1" vertex="1">
          <mxGeometry x="1430" y="435" width="10" height="10" as="geometry" />
        </mxCell>
        <mxCell id="ShX5K6O42kokeJW_D6mE-122" value="" style="whiteSpace=wrap;html=1;aspect=fixed;" parent="WIyWlLk6GJQsqaUBKTNV-1" vertex="1">
          <mxGeometry x="1440" y="435" width="10" height="10" as="geometry" />
        </mxCell>
        <mxCell id="ShX5K6O42kokeJW_D6mE-123" value="" style="whiteSpace=wrap;html=1;aspect=fixed;" parent="WIyWlLk6GJQsqaUBKTNV-1" vertex="1">
          <mxGeometry x="1450" y="435" width="10" height="10" as="geometry" />
        </mxCell>
        <mxCell id="ShX5K6O42kokeJW_D6mE-124" value="" style="whiteSpace=wrap;html=1;aspect=fixed;" parent="WIyWlLk6GJQsqaUBKTNV-1" vertex="1">
          <mxGeometry x="1460" y="435" width="10" height="10" as="geometry" />
        </mxCell>
        <mxCell id="ShX5K6O42kokeJW_D6mE-125" value="" style="whiteSpace=wrap;html=1;aspect=fixed;" parent="WIyWlLk6GJQsqaUBKTNV-1" vertex="1">
          <mxGeometry x="1470" y="435" width="10" height="10" as="geometry" />
        </mxCell>
        <mxCell id="ShX5K6O42kokeJW_D6mE-126" value="" style="whiteSpace=wrap;html=1;aspect=fixed;" parent="WIyWlLk6GJQsqaUBKTNV-1" vertex="1">
          <mxGeometry x="1480" y="435" width="10" height="10" as="geometry" />
        </mxCell>
        <mxCell id="ShX5K6O42kokeJW_D6mE-127" value="" style="whiteSpace=wrap;html=1;aspect=fixed;" parent="WIyWlLk6GJQsqaUBKTNV-1" vertex="1">
          <mxGeometry x="1490" y="435" width="10" height="10" as="geometry" />
        </mxCell>
        <mxCell id="ShX5K6O42kokeJW_D6mE-128" value="" style="whiteSpace=wrap;html=1;aspect=fixed;" parent="WIyWlLk6GJQsqaUBKTNV-1" vertex="1">
          <mxGeometry x="1500" y="435" width="10" height="10" as="geometry" />
        </mxCell>
        <mxCell id="ShX5K6O42kokeJW_D6mE-129" value="" style="whiteSpace=wrap;html=1;aspect=fixed;" parent="WIyWlLk6GJQsqaUBKTNV-1" vertex="1">
          <mxGeometry x="1510" y="435" width="10" height="10" as="geometry" />
        </mxCell>
        <mxCell id="ShX5K6O42kokeJW_D6mE-130" value="" style="whiteSpace=wrap;html=1;aspect=fixed;" parent="WIyWlLk6GJQsqaUBKTNV-1" vertex="1">
          <mxGeometry x="1520" y="435" width="10" height="10" as="geometry" />
        </mxCell>
        <mxCell id="ShX5K6O42kokeJW_D6mE-131" value="Fragment Shader&lt;div&gt;(Pixel Shader)&lt;/div&gt;" style="rounded=0;whiteSpace=wrap;html=1;" parent="WIyWlLk6GJQsqaUBKTNV-1" vertex="1">
          <mxGeometry x="1110" y="460" width="140" height="80" as="geometry" />
        </mxCell>
        <mxCell id="ShX5K6O42kokeJW_D6mE-132" value="Fragment 의 조명이나 추가 연산등&lt;div&gt;투명도(반투명재질) 에따라서 색상 합성 등&lt;/div&gt;" style="rounded=1;whiteSpace=wrap;html=1;" parent="WIyWlLk6GJQsqaUBKTNV-1" vertex="1">
          <mxGeometry x="1280" y="470" width="283" height="60" as="geometry" />
        </mxCell>
        <mxCell id="ShX5K6O42kokeJW_D6mE-133" value="Output&lt;div&gt;(Pixel)&lt;/div&gt;" style="rounded=0;whiteSpace=wrap;html=1;" parent="WIyWlLk6GJQsqaUBKTNV-1" vertex="1">
          <mxGeometry x="1111.5" y="900" width="140" height="80" as="geometry" />
        </mxCell>
        <mxCell id="ShX5K6O42kokeJW_D6mE-134" value="Prepass" style="rounded=0;whiteSpace=wrap;html=1;dashed=1;dashPattern=8 8;" parent="WIyWlLk6GJQsqaUBKTNV-1" vertex="1">
          <mxGeometry x="1110" y="550" width="140" height="40" as="geometry" />
        </mxCell>
        <mxCell id="ShX5K6O42kokeJW_D6mE-135" value="Depthbuffer, normal texture 등을 준비하는 단계&lt;div&gt;Depthbuffer 활용해서 오버드로우 방지 역할도할수있음.&lt;/div&gt;" style="rounded=1;whiteSpace=wrap;html=1;dashed=1;dashPattern=8 8;" parent="WIyWlLk6GJQsqaUBKTNV-1" vertex="1">
          <mxGeometry x="1277" y="550" width="313" height="40" as="geometry" />
        </mxCell>
        <mxCell id="ShX5K6O42kokeJW_D6mE-136" value="G-Buffer" style="rounded=0;whiteSpace=wrap;html=1;dashed=1;dashPattern=8 8;" parent="WIyWlLk6GJQsqaUBKTNV-1" vertex="1">
          <mxGeometry x="1110" y="600" width="140" height="40" as="geometry" />
        </mxCell>
        <mxCell id="ShX5K6O42kokeJW_D6mE-137" value="Deferred Lighting 을 위해서 중간에 사용하는 버퍼" style="rounded=1;whiteSpace=wrap;html=1;dashed=1;dashPattern=8 8;" parent="WIyWlLk6GJQsqaUBKTNV-1" vertex="1">
          <mxGeometry x="1278.5" y="600" width="313" height="40" as="geometry" />
        </mxCell>
        <mxCell id="ShX5K6O42kokeJW_D6mE-138" value="Deferred Lighting" style="rounded=0;whiteSpace=wrap;html=1;dashed=1;dashPattern=8 8;" parent="WIyWlLk6GJQsqaUBKTNV-1" vertex="1">
          <mxGeometry x="1110" y="650" width="140" height="40" as="geometry" />
        </mxCell>
        <mxCell id="ShX5K6O42kokeJW_D6mE-139" value="Forward Lighting 과 다르게 다양한 광원을 객체단위로 연산하지않고 이미 산출된 Fragment 단위로 연산 하는 방식" style="rounded=1;whiteSpace=wrap;html=1;dashed=1;dashPattern=8 8;" parent="WIyWlLk6GJQsqaUBKTNV-1" vertex="1">
          <mxGeometry x="1277" y="650" width="313" height="40" as="geometry" />
        </mxCell>
        <mxCell id="ShX5K6O42kokeJW_D6mE-140" value="Opaque" style="rounded=0;whiteSpace=wrap;html=1;dashed=1;dashPattern=8 8;" parent="WIyWlLk6GJQsqaUBKTNV-1" vertex="1">
          <mxGeometry x="1110" y="700" width="140" height="40" as="geometry" />
        </mxCell>
        <mxCell id="ShX5K6O42kokeJW_D6mE-141" value="Unity 에서 불투명한 객체 연산" style="rounded=1;whiteSpace=wrap;html=1;dashed=1;dashPattern=8 8;" parent="WIyWlLk6GJQsqaUBKTNV-1" vertex="1">
          <mxGeometry x="1277" y="700" width="313" height="40" as="geometry" />
        </mxCell>
        <mxCell id="ShX5K6O42kokeJW_D6mE-142" value="Skybox" style="rounded=0;whiteSpace=wrap;html=1;dashed=1;dashPattern=8 8;" parent="WIyWlLk6GJQsqaUBKTNV-1" vertex="1">
          <mxGeometry x="1110" y="750" width="140" height="40" as="geometry" />
        </mxCell>
        <mxCell id="ShX5K6O42kokeJW_D6mE-143" value="Unity 에서 하늘 Texture 연산" style="rounded=1;whiteSpace=wrap;html=1;dashed=1;dashPattern=8 8;" parent="WIyWlLk6GJQsqaUBKTNV-1" vertex="1">
          <mxGeometry x="1277" y="750" width="313" height="40" as="geometry" />
        </mxCell>
        <mxCell id="ShX5K6O42kokeJW_D6mE-144" value="Transparent" style="rounded=0;whiteSpace=wrap;html=1;dashed=1;dashPattern=8 8;" parent="WIyWlLk6GJQsqaUBKTNV-1" vertex="1">
          <mxGeometry x="1111.5" y="800" width="140" height="40" as="geometry" />
        </mxCell>
        <mxCell id="ShX5K6O42kokeJW_D6mE-145" value="Unity 에서 투명한 객체 연산" style="rounded=1;whiteSpace=wrap;html=1;dashed=1;dashPattern=8 8;" parent="WIyWlLk6GJQsqaUBKTNV-1" vertex="1">
          <mxGeometry x="1278.5" y="800" width="313" height="40" as="geometry" />
        </mxCell>
        <mxCell id="ShX5K6O42kokeJW_D6mE-147" value="PostProcessing" style="rounded=0;whiteSpace=wrap;html=1;dashed=1;dashPattern=8 8;" parent="WIyWlLk6GJQsqaUBKTNV-1" vertex="1">
          <mxGeometry x="1111.5" y="850" width="140" height="40" as="geometry" />
        </mxCell>
        <mxCell id="ShX5K6O42kokeJW_D6mE-148" value="후처리" style="rounded=1;whiteSpace=wrap;html=1;dashed=1;dashPattern=8 8;" parent="WIyWlLk6GJQsqaUBKTNV-1" vertex="1">
          <mxGeometry x="1278.5" y="850" width="313" height="40" as="geometry" />
        </mxCell>
      </root>
    </mxGraphModel>
  </diagram>
</mxfile>
